<svg width="192" height="192" viewBox="0 0 192 192" fill="none" xmlns="http://www.w3.org/2000/svg">
<rect width="192" height="192" rx="40" fill="#0B1040"/>
<path d="M148.701 38.1829C155.834 45.3203 156.952 53.7458 155.373 60.9563C153.88 67.7758 150.02 73.5679 146.843 77.0073L128.33 100.001L118.325 91.951L137.128 68.5958L137.299 68.4149C139.375 66.2106 141.926 62.3255 142.827 58.2104C143.622 54.579 143.169 50.905 139.759 47.4028L139.419 47.0646C136.706 44.4365 134.301 43.3598 132.291 42.9976C130.251 42.63 128.101 42.9068 125.795 43.8087C120.961 45.6993 116.266 50.0131 112.706 54.2437L112.099 54.9735C106.19 62.1308 88.6078 84.9631 77.1275 99.9642L72.4843 106.04L72.4696 106.059L72.4544 106.079L63.8854 117.13C62.641 118.839 60.6685 122.637 60.2845 126.515C59.9447 129.945 60.7732 133.153 64.8518 135.749C69.0874 138.443 73.3605 138.308 78.0355 136.107C82.825 133.852 87.6141 129.547 91.7066 124.576L92.1008 124.094C96.4358 118.725 100.547 113.624 103.739 109.66L113.744 117.711C110.548 121.68 106.433 126.785 102.094 132.158L101.64 132.714C96.9059 138.469 90.6823 144.345 83.5074 147.723C75.8318 151.336 66.7399 152.169 57.9561 146.58C49.0153 140.891 46.7846 132.511 47.5035 125.25C48.1755 118.465 51.3538 112.496 53.5618 109.491L53.6106 109.424L53.6616 109.359L62.2732 98.2529L66.8868 92.2157C78.3379 77.2521 96.1251 54.1489 102.247 46.7359L102.878 45.9784C106.912 41.1852 113.29 34.913 121.116 31.8522C125.141 30.2784 129.72 29.4883 134.569 30.3619C139.448 31.2411 144.093 33.7144 148.356 37.8437L148.701 38.1829Z" fill="white"/>
<path d="M42.905 74.2745C49.0356 66.2846 56.6673 63.4269 63.8516 63.8202C70.5243 64.1855 76.1587 67.2982 79.4674 70.0521L80.7517 71.0228L72.6245 80.8745L71.2217 79.8139L71.0953 79.7063C69.2276 78.1235 65.9839 76.4117 62.6585 76.2295C59.9417 76.0807 56.5769 76.8778 53.113 81.2927L52.7775 81.7312C47.8747 88.3033 48.2843 92.6893 49.4908 95.6153C50.8389 98.8841 53.6872 101.468 56.0445 103.16L56.5084 103.487L56.5499 103.515L56.5914 103.545L87.6271 125.7L123.795 148.471C126.777 149.909 133.133 150.863 137.86 145.474L138.162 145.121C141.188 141.491 141.277 138.481 140.684 136.142C140.012 133.493 138.324 131.371 137.396 130.5L137.221 130.343C134.854 128.316 105.919 106.369 91.4907 95.4588L99.4984 85.517C113.62 96.1952 143.06 118.515 145.794 120.856L146.014 121.049C148.324 123.103 151.63 127.228 153.023 132.716C154.54 138.697 153.667 145.974 147.658 153.02L147.367 153.355C136.85 165.348 122.823 162.238 117.354 159.425L117.119 159.304L116.897 159.164L80.3215 136.135L80.1729 136.042L48.8489 113.682C45.8117 111.579 40.4175 107.273 37.6822 100.641C34.6904 93.386 35.3159 84.4421 42.6139 74.6593L42.905 74.2745Z" fill="white"/>
</svg>
